<svg xmlns="http://www.w3.org/2000/svg" version="1.1" xmlns:xlink="http://www.w3.org/1999/xlink" xmlns:svgjs="http://svgjs.dev/svgjs" width="1000" height="1125" viewBox="0 0 1000 1125"><g transform="matrix(1,0,0,1,1.7053025658242404e-13,0)"><svg viewBox="0 0 320 360" data-background-color="#ffffff" preserveAspectRatio="xMidYMid meet" height="1125" width="1000" xmlns="http://www.w3.org/2000/svg" xmlns:xlink="http://www.w3.org/1999/xlink"><g id="tight-bounds" transform="matrix(1,0,0,1,0,0)"><svg viewBox="0 0 320 360" height="360" width="320"><g><svg></svg></g><g><svg viewBox="0 0 320 360" height="360" width="320"><g><path xmlns="http://www.w3.org/2000/svg" d="M20.961 227.22l3.726 4.658-1.863-6.056c-0.466-2.795-3.726 0.466-1.863 1.398M25.153 224.425c1.397 2.329 2.795 4.658 2.795 6.987 0 3.261 2.795 4.658 5.123 5.589-3.261-3.726-5.124-13.974-7.918-12.576M204.017 26.929c7.918 0 15.371-0.932 23.756 0.931 20.495 5.124 37.729 15.371 49.374 29.811l32.606 52.169c1.397 13.042 4.192 27.482 3.726 43.319 3.261 0 2.795-4.658 6.521-5.59-3.726 9.316-5.59 20.961-6.521 34.469-2.329-7.453 0-18.632 0.466-24.687-3.261 5.124-5.124 1.397-5.124-0.932 0.466-3.726-1.397-3.261-2.795-4.658-5.124-4.658-8.384-9.782-12.11-17.7 2.329-6.055 2.795-14.905-4.658-19.563-2.329-1.397-5.124-3.726-6.521-7.453-1.863-5.124-5.124-11.179-4.193-19.097 0.466-2.329-6.987 5.124-11.179 1.863-18.166-12.576-36.332-27.016-58.224-39.127-11.645 0-20.029-4.192-24.221-9.316-3.726-4.658-0.932-10.713 4.658-11.179 3.261 0 6.987-0.932 9.782 0.932 0.466-1.863 2.329-4.192 4.657-4.192M157.904 16.215l0.932 0.466c4.658 0.932 6.987 7.453 12.11 5.124 0 3.261 0.466 6.521-0.466 8.85-1.397 3.726-5.59 3.726-8.85 3.726-31.208-1.863-49.374 11.179-68.471 22.358-5.124 3.261-10.713 5.59-14.906 9.782-20.029 18.632-41.921 35.866-47.045 70.335l-4.192 38.195c-0.466 4.192-5.124 8.384-4.192 13.508l3.26 22.824c-3.261-3.261-5.124 0.932-4.192 2.795 0.466 1.397 2.329 6.055 5.124 1.863 3.726 6.987 7.453 20.495 12.576 26.55 15.837 18.632 36.332 35.4 53.101 52.169 4.192-0.932 7.453-0.932 8.384-3.727 1.397 2.795-1.397 5.59-3.726 6.056 7.453 4.658 15.837 8.85 27.016 9.781 14.44 0.932 27.948 3.261 40.524 6.522 6.521-1.863 13.042-2.795 20.029-3.261 2.329 0 3.726-3.726 6.521-4.658l0.466-4.658c2.795 4.192 2.329-1.397 0.466-4.192 3.261 2.795 4.192 5.124 5.589 6.987 0-1.397 3.726-6.521 3.727-0.466l0.931-6.055c1.397-0.932 1.863 5.124 3.261 0.931 1.397-4.192 4.192-0.932 6.987-2.329-0.932 1.863-0.466 5.59 2.794 3.261l3.727-3.261c2.329 5.59 6.055 3.261 7.918 2.329 20.495-13.042 40.99-28.413 60.553-43.784l-0.466 6.055 2.329-7.453c2.329 2.329 4.192 0.466 5.124-0.931 2.795-4.658 6.521-9.316 12.577-13.508-7.453 20.029-16.303 35.866-27.482 48.908l-4.658 5.59c0 3.261-0.932 7.453-4.658 7.918-1.863 0.466-5.59-0.932-8.384 1.863-1.397 1.863 3.261 5.59-0.466 2.795-3.261-2.329-6.521 0-10.248 0.932-2.795 0.932 1.863 3.726 2.795 5.589 0.932 1.863 1.863 3.726 1.398 6.056l-5.124-5.59c-6.055 3.261-9.782 9.316-14.906 13.974-2.329 1.863-1.397 5.124-1.397 7.918-3.261 0-6.987-0.932-8.85 0.932-1.397 1.863-0.932 4.658-0.932 7.453-4.658-0.466-5.124-7.453-9.315-6.056-4.192 0.932-8.85 1.397-12.577 3.727 2.795 5.59-4.658 2.329-3.726 3.26-6.987-4.192-13.042-7.453-20.495-4.658-15.837-5.124-35.4-2.795-49.84-0.931 0-2.329 0.466-4.658-0.466-5.124-0.932 2.329-3.726 1.397-3.26 1.397-8.85-6.055-17.7-9.782-27.016-14.905-8.384 0.932-16.303-3.261-18.632-5.59-6.521-6.055-13.974-2.795-20.029-4.192-13.042-3.261-17.7-16.769-19.098-26.084-0.932-4.658-4.658-6.521-6.055-6.056-6.055-19.563-15.371-37.263-22.824-55.429-1.863-4.658-1.397-9.316-1.397-14.44 2.329 0.932 4.658 0.466 4.192-2.794-2.329-15.371-7.918-27.016-13.974-38.195 3.261-15.837 3.726-34.469 11.179-48.443 6.521-12.576 18.632-19.098 27.016-29.811 2.795-3.726 2.795-8.85 5.59-12.11 9.316-9.316 18.632-19.098 28.879-27.482 4.658-3.726 10.247 0 17.234-1.397 2.329-8.384 11.645-15.837 20.495-13.508 3.726 0.932 11.179-8.85 13.508-9.782 3.726-1.397 1.863 3.726 1.863 6.987 8.85-6.987 20.961-10.713 32.14-14.906" fill="#729343" fill-rule="nonzero" stroke="none" stroke-width="1" stroke-linecap="butt" stroke-linejoin="miter" stroke-miterlimit="10" stroke-dasharray="" stroke-dashoffset="0" font-family="none" font-weight="none" font-size="none" text-anchor="none" style="mix-blend-mode: normal" data-fill-palette-color="tertiary"></path></g><g transform="matrix(1,0,0,1,78.84333069776983,90)"><svg viewBox="0 0 162.31333860446034 180" height="180" width="162.31333860446034"><g><svg viewBox="0 0 162.31333860446034 180" height="180" width="162.31333860446034"><g><svg viewBox="0 0 192 212.92150292231312" height="180" width="162.31333860446034"><g transform="matrix(1,0,0,1,0,117.46940268208047)"><svg viewBox="0 0 192 95.45210024023265" height="95.45210024023265" width="192"><g><svg viewBox="0 0 192 95.45210024023265" height="95.45210024023265" width="192"><g><svg viewBox="0 0 192 58.74125874125874" height="58.74125874125874" width="192"><g transform="matrix(1,0,0,1,0,0)"><svg width="192" viewBox="2.049999952316284 -35 114.38999938964844 35" height="58.74125874125874" data-palette-color="#729343"><path d="M2.05 0L2.05-35 10.2-35Q14.45-35 16.4-33.02 18.35-31.05 18.35-26.95L18.35-26.95 18.35-24.8Q18.35-19.35 14.75-17.9L14.75-17.9 14.75-17.8Q16.75-17.2 17.57-15.35 18.4-13.5 18.4-10.4L18.4-10.4 18.4-4.25Q18.4-2.75 18.5-1.83 18.6-0.9 19 0L19 0 13.4 0Q13.1-0.85 13-1.6 12.9-2.35 12.9-4.3L12.9-4.3 12.9-10.7Q12.9-13.1 12.13-14.05 11.35-15 9.45-15L9.45-15 7.55-15 7.55 0 2.05 0ZM7.55-20L9.55-20Q11.2-20 12.03-20.85 12.85-21.7 12.85-23.7L12.85-23.7 12.85-26.4Q12.85-28.3 12.18-29.15 11.5-30 10.05-30L10.05-30 7.55-30 7.55-20ZM22.2 0L22.2-35 37.2-35 37.2-30 27.7-30 27.7-20.75 35.25-20.75 35.25-15.75 27.7-15.75 27.7-5 37.2-5 37.2 0 22.2 0ZM40.34 0L40.34-35 47.25-35 52.59-14.05 52.7-14.05 52.7-35 57.59-35 57.59 0 51.95 0 45.34-25.55 45.25-25.55 45.25 0 40.34 0ZM65.99 0L65.99-30 60.24-30 60.24-35 77.24-35 77.24-30 71.49-30 71.49 0 65.99 0ZM79.89 0L79.89-35 88.04-35Q92.29-35 94.24-33.02 96.19-31.05 96.19-26.95L96.19-26.95 96.19-24.8Q96.19-19.35 92.59-17.9L92.59-17.9 92.59-17.8Q94.59-17.2 95.42-15.35 96.24-13.5 96.24-10.4L96.24-10.4 96.24-4.25Q96.24-2.75 96.34-1.83 96.44-0.9 96.84 0L96.84 0 91.24 0Q90.94-0.85 90.84-1.6 90.74-2.35 90.74-4.3L90.74-4.3 90.74-10.7Q90.74-13.1 89.97-14.05 89.19-15 87.29-15L87.29-15 85.39-15 85.39 0 79.89 0ZM85.39-20L87.39-20Q89.04-20 89.87-20.85 90.69-21.7 90.69-23.7L90.69-23.7 90.69-26.4Q90.69-28.3 90.02-29.15 89.34-30 87.89-30L87.89-30 85.39-30 85.39-20ZM104.29 0L104.29-14.9 97.64-35 103.49-35 107.24-22.15 107.34-22.15 111.09-35 116.44-35 109.79-14.9 109.79 0 104.29 0Z" opacity="1" transform="matrix(1,0,0,1,0,0)" fill="#729343" class="undefined-text-0" data-fill-palette-color="primary" id="text-0"></path></svg></g></svg></g><g transform="matrix(1,0,0,1,0,67.31301818181818)"><svg viewBox="0 0 192 28.139082058414463" height="28.139082058414463" width="192"><g transform="matrix(1,0,0,1,0,0)"><svg width="192" viewBox="1.149999976158142 -40.599998474121094 280.83001708984375 41.15999984741211" height="28.139082058414463" data-palette-color="#096a2e"><path d="M8.47-21.29L8.47-2.69 13.77-2.03 13.77 0 1.15 0 1.15-2.03 4.52-2.59 4.52-21.39 1.15-21.39 1.15-23.41 4.52-24.15 4.52-29.32Q4.52-33.15 6.88-36.62L6.88-36.62Q9.59-40.6 13.99-40.6L13.99-40.6Q16.8-40.6 18.58-39.48L18.58-39.48Q19.36-38.99 19.75-38.35L19.75-38.35 18.09-34.03 16.5-34.03Q16.5-36.47 14.79-37.35L14.79-37.35Q14.18-37.7 13.24-37.7 12.3-37.7 11.44-37.29 10.57-36.89 9.91-36.06L9.91-36.06Q8.47-34.25 8.47-31.01L8.47-31.01 8.47-24.15 15.89-24.15 15.89-21.29 8.47-21.29ZM38.38-5.59L38.38-5.59 39.77-4Q35.89-0.51 32.25 0.37L32.25 0.37Q31.44 0.56 30.66 0.56L30.66 0.56Q25.29 0.56 21.92-2.83L21.92-2.83Q18.58-6.15 18.58-11.5L18.58-11.5Q18.58-16.82 21.73-20.61L21.73-20.61Q25.19-24.73 30.73-24.73L30.73-24.73Q34.57-24.73 37.2-21.97L37.2-21.97Q40.01-19.09 40.01-14.48L40.01-14.48 38.86-13.45 22.95-12.3Q23-7.86 25.83-5.2L25.83-5.2Q28.37-2.86 31.74-2.86 35.1-2.86 38.38-5.59ZM23.12-14.6L23.12-14.6 35.67-15.75Q35.5-19.8 32.54-21.31L32.54-21.31Q31.49-21.85 29.86-21.85 28.22-21.85 26.94-21.04 25.66-20.24 24.83-19.09L24.83-19.09Q23.24-16.92 23.12-14.6ZM63.4-5.59L63.4-5.59 64.79-4Q60.91-0.51 57.27 0.37L57.27 0.37Q56.46 0.56 55.68 0.56L55.68 0.56Q50.31 0.56 46.94-2.83L46.94-2.83Q43.6-6.15 43.6-11.5L43.6-11.5Q43.6-16.82 46.75-20.61L46.75-20.61Q50.21-24.73 55.76-24.73L55.76-24.73Q59.59-24.73 62.23-21.97L62.23-21.97Q65.03-19.09 65.03-14.48L65.03-14.48 63.89-13.45 47.97-12.3Q48.02-7.86 50.85-5.2L50.85-5.2Q53.39-2.86 56.76-2.86 60.13-2.86 63.4-5.59ZM48.14-14.6L48.14-14.6 60.69-15.75Q60.52-19.8 57.56-21.31L57.56-21.31Q56.51-21.85 54.88-21.85 53.24-21.85 51.96-21.04 50.68-20.24 49.85-19.09L49.85-19.09Q48.26-16.92 48.14-14.6ZM75.07-40.6L75.07-2.59 78.19-2.03 78.19 0 67.94 0 67.94-2.03 71.11-2.59 71.11-36.21 67.94-36.82 67.94-38.79 75.07-40.6ZM120.59-3.56L121.03-1.27Q117.47 0.56 115.88 0.56L115.88 0.56Q112.32 0.56 112.32-2.47L112.32-2.47 112.32-3.22Q111.97-2.71 110.45-1.73 108.92-0.76 108.07-0.37L108.07-0.37Q106.04 0.56 104.99 0.56 103.94 0.56 103.26 0.48 102.58 0.39 101.84 0.15 101.11-0.1 100.4-0.54 99.69-0.98 99.13-1.68L99.13-1.68Q97.89-3.25 97.89-5.76L97.89-5.76Q97.89-9.23 100.35-10.6L100.35-10.6Q101.92-11.5 103.66-11.72 105.41-11.94 106.85-12.06L106.85-12.06Q109.58-12.3 112.32-12.35L112.32-12.35 112.32-17.48Q112.32-19.6 111.78-20.31L111.78-20.31Q110.88-21.56 108.97-21.56L108.97-21.56Q104.72-21.56 100.62-18.8L100.62-18.8 99.21-20.92Q104.92-24.73 109.44-24.73L109.44-24.73Q113.37-24.73 115-22.56L115-22.56Q116.27-20.87 116.27-17.77L116.27-17.77 116.27-4.93Q116.27-3.13 116.96-2.88L116.96-2.88Q117.2-2.81 117.59-2.81L117.59-2.81Q118.57-2.81 120.59-3.56L120.59-3.56ZM112.32-5.47L112.32-10.3Q105.38-10.03 103.43-8.91L103.43-8.91Q101.94-8.06 101.94-6.15L101.94-6.15Q101.94-3.39 104.06-2.76L104.06-2.76Q104.65-2.59 105.49-2.59 106.34-2.59 107.46-2.93 108.58-3.27 109.53-3.76L109.53-3.76Q111.34-4.64 112.32-5.47L112.32-5.47ZM129.36-21.29L129.36-7.47Q129.36-2.59 133.31-2.59L133.31-2.59Q135.39-2.59 137.34-4.3L137.34-4.3 138.66-2.69Q136.58-0.98 134.82-0.21 133.07 0.56 131.72 0.56 130.38 0.56 129.12-0.02 127.87-0.61 127.04-1.71L127.04-1.71Q125.4-3.83 125.4-7.74L125.4-7.74 125.4-21.29 122.3-21.29 122.3-23.41 125.4-24.15 125.4-27.42 128.28-30.3 129.36-30.3 129.36-24.15 137.41-24.15 137.41-21.29 129.36-21.29ZM171.05-21.56L171.05-21.56Q167.36-21.56 163.43-18.97L163.43-18.97 163.43-2.59 166.53-2.03 166.53 0 156.28 0 156.28-2.03 159.45-2.59 159.45-36.21 156.28-36.82 156.28-38.79 163.43-40.6 163.43-21.56Q165.87-23.24 168.23-23.99 170.59-24.73 172.25-24.73 173.91-24.73 175.22-24.27 176.54-23.8 177.47-22.85L177.47-22.85Q179.42-20.87 179.42-17.19L179.42-17.19 179.42-2.59 182.52-2.03 182.52 0 172.29 0 172.29-2.03 175.44-2.59 175.44-16.72Q175.44-21.56 171.05-21.56ZM186.28-11.87L186.28-11.87Q186.28-14.67 187.25-17.09 188.21-19.51 189.87-21.19L189.87-21.19Q193.29-24.73 198.29-24.73L198.29-24.73Q204.1-24.73 207.37-21.29L207.37-21.29Q210.48-17.99 210.48-12.67L210.48-12.67Q210.48-6.74 206.96-3.03L206.96-3.03Q203.54 0.56 198.51 0.56L198.51 0.56Q192.78 0.56 189.43-2.98L189.43-2.98Q186.28-6.3 186.28-11.87ZM192.53-19.15Q191.55-17.9 191.05-16.21 190.55-14.53 190.55-12.56 190.55-10.6 191.01-8.73 191.46-6.86 192.41-5.42L192.41-5.42Q194.51-2.29 198.46-2.29L198.46-2.29Q202.17-2.29 204.23-4.74L204.23-4.74Q206.25-7.13 206.25-11.21L206.25-11.21Q206.25-18.43 202.13-20.92L202.13-20.92Q200.59-21.85 198.49-21.85 196.39-21.85 194.95-21.13 193.51-20.41 192.53-19.15ZM230.25-21.56L230.25-21.56Q225.98-21.56 222.31-18.97L222.31-18.97 222.31-2.59 225.41-2.03 225.41 0 215.21 0 215.21-2.03 218.36-2.59 218.36-20.36 215.21-20.92 215.21-22.95 222.31-24.73 222.31-21.56Q226.9-24.73 230.96-24.73L230.96-24.73Q236.03-24.73 237.55-21.51L237.55-21.51Q240.04-23.24 242.41-23.99 244.77-24.73 246.43-24.73L246.43-24.73Q250.15-24.73 251.96-22.88 253.78-21.02 253.78-17.19L253.78-17.19 253.78-2.59 256.86-2.03 256.86 0 246.7 0 246.7-2.03 249.8-2.59 249.8-17.19Q249.8-19.38 248.51-20.56L248.51-20.56Q247.41-21.56 245.78-21.56L245.78-21.56Q241.58-21.56 238.09-19.04L238.09-19.04Q238.21-17.82 238.21-17.19L238.21-17.19 238.21-2.59 241.02-2.03 241.02 0 231.35 0 231.35-2.03 234.2-2.59 234.2-17.19Q234.2-19.38 232.98-20.56L232.98-20.56Q231.93-21.56 230.25-21.56ZM280.34-5.59L280.34-5.59 281.74-4Q277.85-0.51 274.22 0.37L274.22 0.37Q273.41 0.56 272.63 0.56L272.63 0.56Q267.26 0.56 263.89-2.83L263.89-2.83Q260.54-6.15 260.54-11.5L260.54-11.5Q260.54-16.82 263.69-20.61L263.69-20.61Q267.16-24.73 272.7-24.73L272.7-24.73Q276.54-24.73 279.17-21.97L279.17-21.97Q281.98-19.09 281.98-14.48L281.98-14.48 280.83-13.45 264.91-12.3Q264.96-7.86 267.79-5.2L267.79-5.2Q270.33-2.86 273.7-2.86 277.07-2.86 280.34-5.59ZM265.08-14.6L265.08-14.6 277.63-15.75Q277.46-19.8 274.51-21.31L274.51-21.31Q273.46-21.85 271.82-21.85 270.19-21.85 268.91-21.04 267.62-20.24 266.79-19.09L266.79-19.09Q265.21-16.92 265.08-14.6Z" opacity="1" transform="matrix(1,0,0,1,0,0)" fill="#096a2e" class="undefined-text-1" data-fill-palette-color="secondary" id="text-1"></path></svg></g></svg></g></svg></g></svg></g><g transform="matrix(1,0,0,1,36.672000000000004,0)"><svg viewBox="0 0 118.65599999999999 108.89764324152104" height="108.89764324152104" width="118.65599999999999"><g><svg version="1.1" xmlns="http://www.w3.org/2000/svg" xmlns:xlink="http://www.w3.org/1999/xlink" x="0" y="0" viewBox="0.14570336043834686 4.190000057220459 99.9990005493164 91.77500915527344" enable-background="new 0.146 4.189 100 91.775" xml:space="preserve" width="118.65599999999999" height="108.89764324152104" class="icon-icon-0" data-fill-palette-color="accent" id="icon-0"><g fill="#096a2e" data-fill-palette-color="accent"><path d="M99.511 38.569L50.993 4.606c-0.513-0.359-1.195-0.359-1.708 0L0.779 38.569c-0.323 0.228-0.542 0.573-0.611 0.961-0.068 0.389 0.021 0.789 0.247 1.112l6.606 9.434c0.291 0.415 0.751 0.635 1.222 0.635 0.294 0 0.592-0.086 0.852-0.269l41.051-28.748 41.049 28.748c0.678 0.472 1.604 0.307 2.074-0.366l6.607-9.434c0.225-0.323 0.315-0.724 0.246-1.112C100.055 39.143 99.835 38.797 99.511 38.569z" fill="#096a2e" data-fill-palette-color="accent"></path><path d="M87.456 53.667l-36.457-25.53c-0.512-0.358-1.195-0.358-1.707 0L12.641 53.803c-0.398 0.277-0.635 0.733-0.635 1.22v39.454c0 0.82 0.667 1.488 1.49 1.488h25.502c0.822 0 1.489-0.668 1.489-1.488V60.095h19.32v34.382c0 0.82 0.666 1.488 1.489 1.488h25.309c0.823 0 1.486-0.668 1.486-1.488V54.886C88.09 54.4 87.855 53.946 87.456 53.667z" fill="#096a2e" data-fill-palette-color="accent"></path><path d="M74.213 15.768l11.411 7.99c0.256 0.178 0.554 0.269 0.854 0.269 0.236 0 0.474-0.056 0.688-0.167 0.49-0.256 0.801-0.766 0.801-1.321V5.678c0-0.822-0.667-1.488-1.489-1.488H75.065c-0.822 0-1.488 0.667-1.488 1.488v8.871C73.576 15.033 73.812 15.489 74.213 15.768z" fill="#096a2e" data-fill-palette-color="accent"></path></g></svg></g></svg></g><g></g></svg></g></svg></g></svg></g></svg></g><defs></defs></svg><rect width="320" height="360" fill="none" stroke="none" visibility="hidden"></rect></g></svg></g></svg>